<?xml version="1.0" standalone="no"?>
<!DOCTYPE svg PUBLIC "-//W3C//DTD SVG 20010904//EN"
 "http://www.w3.org/TR/2001/REC-SVG-20010904/DTD/svg10.dtd">
<svg version="1.0" xmlns="http://www.w3.org/2000/svg"
 width="623.000000pt" height="450.000000pt" viewBox="0 0 623.000000 450.000000"
 preserveAspectRatio="xMidYMid meet">

<g transform="translate(0.000000,450.000000) scale(0.100000,-0.100000)"
fill="#000000" stroke="none">
<path d="M2945 4049 l-38 -77 56 -178 c32 -99 57 -186 57 -194 -1 -8 -28 71
-61 175 -34 105 -62 191 -63 192 -1 1 -85 -25 -188 -58 -176 -57 -186 -61
-184 -84 0 -14 5 -25 10 -25 4 0 6 -7 2 -15 -3 -8 -1 -15 5 -15 5 0 9 -6 7
-12 -1 -7 1 -26 5 -42 7 -26 10 -28 44 -21 46 8 72 20 106 47 25 21 28 21 44
6 15 -16 14 -20 -24 -57 -26 -26 -56 -45 -86 -53 -41 -10 -46 -15 -40 -33 4
-11 7 -28 7 -37 0 -10 4 -18 9 -18 5 0 7 -7 3 -15 -3 -8 -1 -15 5 -15 6 0 9
-7 5 -15 -3 -8 -1 -15 4 -15 6 0 10 -8 10 -17 0 -14 2 -15 9 -4 5 7 14 10 20
7 6 -4 11 -2 11 4 0 7 7 10 15 6 8 -3 15 -1 15 5 0 6 7 9 15 5 8 -3 15 -2 15
3 0 4 35 16 78 26 42 10 106 28 142 40 64 21 66 22 103 91 45 84 46 81 -27
304 l-53 165 -38 -76z"/>
<path d="M3458 4033 c42 -4 42 -5 42 -43 0 -38 -1 -39 -37 -42 -32 -3 -38 -7
-40 -28 -3 -25 -3 -25 7 -2 8 20 16 22 80 22 64 0 72 -2 80 -22 10 -23 10 -23
7 2 -2 21 -8 25 -39 28 -37 3 -38 4 -38 42 0 38 0 39 43 43 23 2 -1 4 -53 4
-52 0 -76 -2 -52 -4z"/>
<path d="M2283 3953 c-18 -7 -16 -43 2 -43 9 0 15 -10 15 -26 0 -17 6 -28 20
-31 13 -3 20 -14 20 -29 0 -20 5 -24 30 -24 26 0 29 3 28 26 -2 19 -7 24 -20
21 -10 -3 -21 -1 -24 5 -9 15 18 59 33 54 7 -3 13 1 13 9 0 17 -42 30 -66 21
-9 -4 -22 0 -28 8 -6 7 -17 12 -23 9z"/>
<path d="M3490 3915 c0 -8 9 -15 20 -15 11 0 20 7 20 15 0 8 -9 15 -20 15 -11
0 -20 -7 -20 -15z"/>
<path d="M2119 3454 c0 -11 -2 -59 -3 -109 -2 -61 -13 -129 -35 -214 -18 -68
-31 -124 -29 -126 2 -1 13 -5 24 -9 29 -9 40 3 104 122 30 56 58 102 62 102
10 0 29 -66 42 -148 12 -76 12 -77 43 -80 27 -3 31 0 37 29 15 76 1 218 -36
350 l-21 77 -76 4 c-42 3 -84 8 -93 12 -14 6 -18 3 -19 -10z"/>
<path d="M3698 2903 c23 -2 59 -2 80 0 20 2 1 4 -43 4 -44 0 -61 -2 -37 -4z"/>
<path d="M1999 2840 c-63 -5 -83 -11 -113 -33 -73 -56 -71 -41 -74 -531 l-2
-439 -46 -53 c-38 -45 -46 -62 -51 -107 -8 -74 6 -97 57 -97 l40 0 0 -142 c1
-211 14 -254 90 -305 28 -20 46 -23 126 -23 83 0 97 -3 130 -25 57 -39 96 -45
294 -45 168 0 186 2 197 18 7 12 96 49 241 101 l231 83 3 52 3 51 55 0 c53 0
55 -1 58 -28 3 -24 7 -27 25 -21 53 16 67 24 67 39 0 11 11 15 38 15 20 0 54
3 74 6 31 5 41 2 62 -19 24 -24 26 -25 26 -6 0 18 5 19 51 15 27 -2 52 -6 54
-8 2 -2 1 -29 -2 -61 -6 -57 -6 -57 -39 -57 -19 0 -34 -3 -34 -7 0 -5 13 -44
29 -88 l29 -80 209 0 210 0 52 32 52 33 147 0 c134 0 151 2 186 23 72 40 81
67 84 269 l4 177 86 3 87 3 3 73 3 72 -90 103 -91 102 0 390 c0 358 -2 393
-19 431 -11 24 -33 50 -53 62 -33 21 -48 22 -237 22 -194 0 -201 -1 -201 -20
0 -19 7 -20 165 -20 l165 0 0 -326 c0 -252 -3 -325 -12 -322 -7 3 -15 15 -19
29 -4 13 -7 20 -8 15 -1 -5 -10 -1 -21 9 -19 17 -20 31 -20 246 l0 228 -85 3
-85 3 0 -177 0 -178 -59 0 -58 0 -62 -69 -62 -70 -985 -1 c-796 0 -985 2 -982
12 3 7 23 14 46 16 l42 3 0 290 0 289 229 0 c224 0 229 0 224 20 -4 16 -14 20
-47 20 -22 1 -108 2 -191 3 -82 1 -184 0 -226 -3z m2119 -633 c8 -10 6 -13 -9
-13 -19 0 -24 7 -12 19 8 9 9 9 21 -6z m-1853 -182 l7 -65 39 0 39 0 0 65 c0
37 4 65 10 65 6 0 10 -13 10 -29 0 -15 3 -49 6 -75 l7 -46 -61 0 -61 0 -6 48
c-3 26 -8 59 -10 75 -3 15 -1 27 4 27 5 0 12 -29 16 -65z m329 28 c3 -21 6
-55 6 -75 l0 -38 -60 0 -60 0 0 44 c0 24 -3 58 -6 75 l-6 31 59 0 60 0 7 -37z
m226 -38 l0 -75 -60 0 -60 0 0 75 0 75 60 0 60 0 0 -75z m446 44 c-3 -17 -6
-51 -6 -75 l0 -44 -60 0 -60 0 0 75 0 75 66 0 67 0 -7 -31z m224 9 c0 -13 -3
-47 -6 -75 l-7 -53 -58 0 -59 0 0 59 c0 88 3 91 71 91 55 0 59 -2 59 -22z
m218 -27 c-3 -28 -12 -61 -22 -75 -14 -22 -24 -26 -63 -26 l-46 0 7 53 c3 28
6 62 6 75 0 20 4 22 61 22 l62 0 -5 -49z m296 -18 c-3 -38 -9 -72 -14 -76 -10
-12 -103 -4 -107 9 -4 11 103 134 118 134 5 0 6 -30 3 -67z m178 27 l51 0 -7
-37 c-3 -21 -6 -46 -6 -55 0 -15 -10 -18 -60 -18 l-60 0 6 48 c6 48 11 79 15
97 1 6 4 0 6 -12 4 -20 10 -23 55 -23z m-1202 -70 c0 -16 7 -20 30 -20 17 0
30 -4 30 -10 0 -6 -27 -10 -60 -10 l-60 0 0 30 c0 27 3 30 30 30 23 0 30 -4
30 -20z m1375 -37 c22 -25 24 -38 25 -110 l0 -83 -46 0 -46 0 6 48 c14 96 28
172 33 172 2 0 15 -12 28 -27z m-2378 -105 c-3 -8 -6 -5 -6 6 -1 11 2 17 5 13
3 -3 4 -12 1 -19z m105 -45 c6 -42 4 -48 -11 -38 -13 8 -15 75 -2 75 5 0 11
-17 13 -37z m96 -6 c2 -28 -1 -37 -12 -37 -12 0 -16 11 -16 41 0 52 24 48 28
-4z m215 11 c2 -18 3 -36 0 -40 -2 -5 -28 -8 -57 -8 -52 0 -54 1 -60 31 -3 17
-3 35 0 40 3 5 29 9 58 9 53 0 54 -1 59 -32z m215 -11 l3 -38 -58 3 -58 3 -3
38 -3 38 58 -3 58 -3 3 -38z m212 3 l0 -40 -54 0 c-53 0 -54 0 -59 33 -2 17
-3 35 0 40 2 4 29 7 59 7 l54 0 0 -40z m434 31 c3 -5 3 -23 0 -40 -6 -30 -8
-31 -59 -31 -28 0 -54 2 -56 5 -3 2 -3 20 -1 40 l4 35 54 0 c29 0 55 -4 58 -9z
m216 -20 c0 -32 -7 -36 -74 -46 l-46 -7 0 41 0 41 60 0 c60 0 60 0 60 -29z
m503 -61 c-5 -30 -12 -54 -16 -52 -4 1 -27 2 -52 2 -42 0 -45 2 -45 28 0 15 3
44 6 64 6 37 7 37 58 40 59 3 61 1 49 -82z m222 58 c-3 -18 -9 -50 -12 -70
l-6 -38 -54 0 -54 0 6 53 c9 75 9 76 62 80 26 2 52 4 57 5 5 1 5 -13 1 -30z
m-1155 -8 l0 -30 -60 0 -60 0 0 30 0 30 60 0 60 0 0 -30z m630 -79 c0 -10 -9
-21 -20 -24 -19 -5 -19 -4 -2 19 21 29 22 29 22 5z m-1549 -167 c10 -46 10
-104 0 -104 -15 0 -18 10 -25 79 -6 50 -4 62 6 59 7 -3 16 -18 19 -34z m83 -6
c3 -17 6 -45 6 -63 0 -30 -2 -32 -32 -31 -33 1 -33 2 -36 55 -4 69 1 80 31 74
18 -4 27 -13 31 -35z m1244 13 c2 -13 1 -44 -3 -68 l-6 -44 -52 3 c-29 2 -51
6 -49 11 1 4 2 31 2 61 0 52 1 55 28 59 56 9 77 3 80 -22z m498 -32 c-3 -33
-8 -64 -10 -67 -2 -4 -26 -6 -53 -4 l-48 4 5 56 5 57 45 6 c25 3 49 7 54 7 5
1 6 -25 2 -59z m434 -144 l0 -205 -100 0 c-55 0 -100 2 -100 4 0 29 16 36 81
36 62 0 69 2 69 20 0 18 -7 20 -60 20 -33 0 -60 3 -60 6 0 9 40 267 46 297 5
26 8 27 65 27 l59 0 0 -205z m-1968 155 c4 -91 8 -83 -49 -88 -47 -3 -53 -1
-53 16 0 11 -3 40 -6 66 l-7 46 57 0 56 0 2 -40z m208 -20 l0 -59 -34 -6 c-64
-12 -71 -7 -74 63 l-3 62 56 0 55 0 0 -60z m200 1 c0 -64 -7 -71 -72 -71 -28
0 -28 1 -28 65 l0 65 50 0 50 0 0 -59z m210 0 l0 -59 -50 -4 -50 -3 0 63 0 62
50 0 50 0 0 -59z m208 -3 l-3 -63 -52 -3 -53 -3 0 65 0 66 55 0 56 0 -3 -62z
m414 5 c-2 -32 -6 -59 -7 -61 -1 -1 -25 -5 -54 -9 l-51 -6 0 29 c0 16 3 46 6
67 l7 37 52 0 52 0 -5 -57z m503 20 c-14 -87 -11 -83 -66 -83 l-51 0 6 31 c3
17 6 44 6 60 0 28 1 29 55 29 l56 0 -6 -37z m-2117 -180 c11 -72 25 -141 31
-152 16 -29 14 -31 -24 -31 l-35 0 0 162 c0 89 2 159 4 157 2 -2 13 -63 24
-136z m186 -12 c3 -4 8 -34 12 -65 l7 -56 -55 0 -55 0 -7 38 c-3 20 -6 49 -6
65 0 26 2 27 49 27 28 0 52 -4 55 -9z m210 -37 c11 -86 12 -84 -48 -84 l-53 0
-7 38 c-3 20 -6 49 -6 65 0 26 2 27 54 27 l53 0 7 -46z m200 9 c3 -21 6 -50 6
-65 0 -27 -2 -28 -54 -28 -52 0 -54 1 -60 31 -3 17 -6 47 -6 65 l0 34 54 0 53
0 7 -37z m194 -30 l3 -63 -49 0 c-36 0 -52 4 -56 16 -8 22 -8 99 1 108 4 4 28
6 53 4 l45 -3 3 -62z m1093 -3 l-6 -55 -50 0 c-34 0 -50 4 -49 13 1 6 2 32 3
56 l1 45 48 3 c26 2 50 1 53 -2 3 -3 3 -30 0 -60z m-891 0 l0 -60 -55 0 -55 0
0 38 c0 73 7 82 61 82 l49 0 0 -60z m1089 10 c-4 -27 -10 -54 -14 -60 -3 -5
-26 -9 -52 -8 l-45 1 6 45 c3 24 6 51 6 58 0 10 15 14 54 14 l53 0 -8 -50z"/>
<path d="M4712 2744 c-38 -27 -55 -70 -42 -110 14 -43 44 -64 91 -64 45 0 85
30 94 71 18 82 -76 150 -143 103z"/>
<path d="M2064 2698 c1 -33 5 -42 21 -45 11 -1 102 0 203 4 l182 6 0 38 0 39
-204 0 -204 0 2 -42z"/>
<path d="M4870 2655 c0 -36 -24 -69 -75 -103 -11 -7 -15 -10 -9 -8 7 3 23 -3
37 -14 14 -11 29 -20 34 -19 15 4 63 -13 63 -22 0 -5 3 -8 8 -8 21 4 42 -3 56
-17 9 -8 16 -13 16 -9 0 3 20 -8 45 -25 42 -29 44 -30 55 -11 12 24 13 34 1
27 -9 -6 -91 64 -91 77 0 5 -13 20 -30 34 -16 13 -30 29 -30 35 0 5 -13 21
-30 35 -16 13 -30 31 -30 38 0 8 -4 17 -10 20 -6 4 -10 -8 -10 -30z m85 -124
c33 -24 62 -46 64 -48 2 -2 2 -6 -1 -9 -7 -7 -148 97 -148 109 0 11 12 3 85
-52z"/>
<path d="M2071 2538 c-1 -23 3 -28 22 -27 15 1 17 3 5 6 -9 2 -19 14 -21 26
-4 18 -5 17 -6 -5z"/>
<path d="M5160 2454 c0 -9 5 -12 10 -9 16 10 42 -16 35 -34 -17 -40 -33 -117
-27 -126 4 -5 5 -18 4 -27 -2 -11 3 -18 12 -18 8 0 13 -6 11 -12 -2 -7 6 -26
19 -42 19 -23 27 -26 42 -18 14 8 23 7 36 -5 16 -15 20 -15 36 0 10 10 33 17
50 17 26 0 32 4 32 21 0 16 -4 19 -16 15 -9 -4 -25 1 -34 9 -10 9 -24 15 -31
13 -9 -2 -14 6 -14 24 0 15 -5 32 -12 39 -6 6 -9 18 -6 25 3 7 -4 25 -16 40
-11 14 -18 30 -15 35 3 5 -4 22 -16 37 -17 20 -31 27 -61 29 -28 1 -39 -3 -39
-13z"/>
<path d="M2071 2438 c1 -16 3 -18 6 -6 2 9 12 19 21 21 12 3 10 5 -5 6 -18 1
-23 -4 -22 -21z"/>
<path d="M4840 2333 c0 -38 4 -73 8 -79 12 -18 49 -34 77 -34 21 0 26 -4 21
-16 -3 -8 -1 -24 4 -35 8 -13 7 -32 0 -60 -7 -24 -8 -45 -3 -50 5 -5 36 -12
70 -15 58 -6 63 -5 87 21 31 33 33 17 6 -42 -22 -49 -31 -51 -79 -22 -18 11
-34 19 -36 17 -1 -2 -7 -13 -14 -25 -11 -21 -8 -24 38 -48 63 -31 71 -31 104
3 65 68 89 197 45 246 -21 22 -27 24 -65 17 l-42 -8 -3 36 -3 36 -82 9 -83 9
0 53 c0 51 -1 54 -25 54 -24 0 -25 -2 -25 -67z"/>
<path d="M2214 2288 c-66 -71 -68 -68 40 -68 l96 0 0 50 0 50 -53 0 c-47 0
-56 -4 -83 -32z"/>
<path d="M1087 1663 c-3 -4 -8 -97 -12 -206 -8 -221 -7 -227 54 -227 36 0 37
-1 33 -35 -4 -29 0 -36 22 -46 20 -10 32 -10 52 0 22 10 26 17 22 46 l-4 35
160 0 c124 0 157 -3 148 -12 -28 -28 2 -78 46 -78 30 0 57 42 43 69 -10 19 -8
20 41 23 46 3 53 6 56 25 3 21 -1 22 -65 25 l-68 3 -3 193 -2 192 -180 0 -180
0 0 -195 0 -195 -59 0 -59 0 -8 192 c-6 129 -13 193 -21 195 -6 2 -13 0 -16
-4z"/>
<path d="M4955 1172 c-35 -12 -60 -30 -52 -39 5 -4 22 0 39 10 25 14 33 15 39
5 10 -17 23 -3 16 17 -7 16 -11 17 -42 7z"/>
<path d="M5055 1158 c-19 -29 -3 -36 30 -14 14 9 25 12 25 6 0 -5 5 -10 10
-10 6 0 10 9 10 20 0 29 -54 28 -75 -2z"/>
<path d="M2276 999 c-31 -25 -34 -61 -6 -89 24 -24 49 -25 76 -5 17 13 16 13
-13 3 -28 -10 -35 -9 -53 7 -28 26 -23 65 12 84 24 14 28 14 47 -3 11 -10 22
-30 24 -45 l4 -26 2 28 c1 28 -29 67 -53 67 -7 0 -25 -9 -40 -21z"/>
<path d="M4054 944 c-18 -15 -18 -15 3 -5 30 15 49 14 67 -5 23 -22 20 -60 -6
-78 -12 -9 -18 -16 -12 -16 18 0 44 35 44 58 0 27 -33 62 -58 62 -10 0 -27 -7
-38 -16z"/>
<path d="M3252 905 c-28 -12 -32 -17 -22 -34 10 -19 12 -19 56 -4 32 11 44 19
40 30 -3 8 -6 17 -6 19 0 9 -36 3 -68 -11z"/>
<path d="M4031 913 c-1 -9 -49 -13 -183 -16 l-183 -2 183 -3 c104 -1 182 -6
182 -11 0 -13 29 -41 43 -41 6 0 2 7 -10 15 -12 8 -24 28 -26 43 -2 15 -5 21
-6 15z"/>
<path d="M3135 863 c-51 -21 -48 -18 -36 -41 10 -20 12 -20 53 -4 24 9 44 16
45 17 5 2 -10 45 -16 44 -3 0 -24 -7 -46 -16z"/>
<path d="M2999 812 c-25 -12 -34 -22 -31 -35 4 -19 20 -19 76 3 18 7 23 14 19
29 -6 25 -16 25 -64 3z"/>
<path d="M2310 803 c0 -7 9 -22 20 -33 19 -19 32 -20 208 -18 l187 2 -192 6
c-105 3 -193 7 -196 10 -2 3 -9 14 -15 25 -6 11 -12 14 -12 8z"/>
<path d="M3112 760 c-85 -33 -87 -34 -75 -53 7 -13 20 -11 89 15 70 25 81 32
77 49 -6 23 -1 24 -91 -11z"/>
<path d="M2863 765 c-24 -11 -30 -19 -26 -35 6 -24 7 -24 59 -4 33 12 41 20
37 35 -6 22 -25 23 -70 4z"/>
<path d="M2913 688 c-55 -21 -58 -25 -45 -45 6 -10 21 -8 62 8 30 11 61 22 67
24 18 6 4 35 -16 34 -9 -1 -40 -10 -68 -21z"/>
</g>
</svg>
